<?xml version="1.0" encoding="UTF-8"?>
<svg width="352px" height="545px" viewBox="0 0 352 545" version="1.1" xmlns="http://www.w3.org/2000/svg" xmlns:xlink="http://www.w3.org/1999/xlink">
    <title>Group</title>
    <g id="Page-1" stroke="none" stroke-width="1" fill="none" fill-rule="evenodd">
        <g id="Group" fill-rule="nonzero">
            <g id="Map_marker" fill="#00AEEF">
                <path d="M175.9,544.7 C175.9,544.8 176.1,545 176.1,545 C176.1,545 351.3,276 351.3,187.6 C351.3,57.5 262.5,0.9 175.9,0.7 C89.3,0.9 0.5,57.5 0.5,187.6 C0.5,276 175.8,545 175.8,545 C175.8,545 175.9,544.7 175.9,544.7 Z M115.2,180.2 C115.2,146.6 142.4,119.4 176,119.4 C209.6,119.4 236.8,146.6 236.8,180.2 C236.8,213.8 209.5,241 175.9,241 C142.4,241 115.2,213.8 115.2,180.2 Z" id="Shape"></path>
            </g>
            <ellipse id="Oval" fill="#FFFFFF" cx="176.5" cy="180" rx="62.5" ry="62"></ellipse>
        </g>
    </g>
</svg>